HIERARCHY
ROOT joint_Root
{
	OFFSET 0.0 0.0 0.0
	CHANNELS 6 Xposition Yposition Zposition Zrotation Xrotation Yrotation 
	JOINT Hips
	{
		OFFSET 4.5925 91.4895 -427.239
		CHANNELS 6 Xposition Yposition Zposition Zrotation Xrotation Yrotation 
		JOINT Spine
		{
			OFFSET 15.7357 0.0 0.0
			CHANNELS 6 Xposition Yposition Zposition Zrotation Xrotation Yrotation 
			JOINT Chest
			{
				OFFSET 8.98455 -0.406207 0.0
				CHANNELS 6 Xposition Yposition Zposition Zrotation Xrotation Yrotation 
				JOINT Neck
				{
					OFFSET 16.3773 0.0 0.0
					CHANNELS 6 Xposition Yposition Zposition Zrotation Xrotation Yrotation 
					JOINT Head
					{
						OFFSET 6.45672 0.0 0.0
						CHANNELS 6 Xposition Yposition Zposition Zrotation Xrotation Yrotation 
						End Site
						{
							OFFSET 0.0 0.0 0.0
						}
					}
				}
				JOINT Shoulder_L
				{
					OFFSET 12.9942 -0.242716 4.98039
					CHANNELS 6 Xposition Yposition Zposition Zrotation Xrotation Yrotation 
					JOINT UpperArm_L
					{
						OFFSET 5.34809 0.0 0.0
						CHANNELS 6 Xposition Yposition Zposition Zrotation Xrotation Yrotation 
						JOINT LowerArm_L
						{
							OFFSET 24.3286 1.87007e-05 0.0
							CHANNELS 6 Xposition Yposition Zposition Zrotation Xrotation Yrotation 
							JOINT Hand_L
							{
								OFFSET 22.2916 0.0 0.0
								CHANNELS 6 Xposition Yposition Zposition Zrotation Xrotation Yrotation 
								End Site
								{
									OFFSET 0.0 0.0 0.0
								}
							}
						}
					}
				}
				JOINT Shoulder_R
				{
					OFFSET 12.9945 -0.242716 -4.98039
					CHANNELS 6 Xposition Yposition Zposition Zrotation Xrotation Yrotation 
					JOINT UpperArm_R
					{
						OFFSET -5.34813 0.0 0.0
						CHANNELS 6 Xposition Yposition Zposition Zrotation Xrotation Yrotation 
						JOINT LowerArm_R
						{
							OFFSET -24.3289 0.000322201 0.0
							CHANNELS 6 Xposition Yposition Zposition Zrotation Xrotation Yrotation 
							JOINT Hand_R
							{
								OFFSET -22.2915 -0.000108084 0.0
								CHANNELS 6 Xposition Yposition Zposition Zrotation Xrotation Yrotation 
								End Site
								{
									OFFSET 0.0 0.0 0.0
								}
							}
						}
					}
				}
			}
		}
		JOINT UpperLeg_L
		{
			OFFSET -2.19248 -6.46944 0.0
			CHANNELS 6 Xposition Yposition Zposition Zrotation Xrotation Yrotation 
			JOINT LowerLeg_L
			{
				OFFSET 39.0811 0.0 -1.23785e-05
				CHANNELS 6 Xposition Yposition Zposition Zrotation Xrotation Yrotation 
				JOINT Foot_L
				{
					OFFSET 40.9854 0.0 -1.26872e-05
					CHANNELS 6 Xposition Yposition Zposition Zrotation Xrotation Yrotation 
					JOINT Toes_L
					{
						OFFSET 11.7543 0.0 0.0
						CHANNELS 6 Xposition Yposition Zposition Zrotation Xrotation Yrotation 
						End Site
						{
							OFFSET 0.0 0.0 0.0
						}
					}
				}
			}
		}
		JOINT UpperLeg_R
		{
			OFFSET -2.19251 6.46944 0.0
			CHANNELS 6 Xposition Yposition Zposition Zrotation Xrotation Yrotation 
			JOINT LowerLeg_R
			{
				OFFSET -39.0811 -0.00228153 -0.0401928
				CHANNELS 6 Xposition Yposition Zposition Zrotation Xrotation Yrotation 
				JOINT Foot_R
				{
					OFFSET -40.9854 0.0 0.0
					CHANNELS 6 Xposition Yposition Zposition Zrotation Xrotation Yrotation 
					JOINT Toes_R
					{
						OFFSET -11.7543 0.0 0.0
						CHANNELS 6 Xposition Yposition Zposition Zrotation Xrotation Yrotation 
						End Site
						{
							OFFSET 0.0 0.0 0.0
						}
					}
				}
			}
		}
	}
}
MOTION
Frames:	8
Frame Time:	0.0333333
0.000000 0.000000 0.000000 0.000000 0.000000 -0.000000 -6.869550 90.243100 1.748130 84.575400 -5.029830 7.931930 15.735700 0.000005 -0.000001 81.382900 83.427500 -79.133600 8.984550 -0.406207 -0.000000 5.276620 -2.014000 4.586720 16.377300 -0.000001 -0.000001 2.444340 -0.650404 -0.817708 6.456720 -0.000001 -0.000000 -7.186660 0.403043 1.319880 12.994200 -0.242716 4.980390 -91.396000 5.838250 -76.527700 5.348090 -0.000007 -0.000001 -67.501800 33.323300 -10.778500 24.328600 0.000019 0.000005 12.231900 27.576800 -25.093300 22.291600 -0.000001 0.000005 7.620710 5.328600 -0.744759 12.994500 -0.242716 -4.980390 88.235500 12.609200 -81.967400 -5.348130 -0.000001 -0.000004 -61.195800 35.398600 -8.292560 -24.328900 0.000322 -0.000009 1.995650 5.851600 -18.878400 -22.291500 -0.000108 -0.000004 13.879400 5.422850 -3.695140 -2.192480 -6.469440 -0.000000 -165.264000 -12.006100 -0.332105 39.081100 -0.000007 -0.000012 -0.284016 0.440070 32.838300 40.985400 -0.000006 -0.000013 -3.675400 7.307380 -72.910600 11.754300 -0.000000 0.000003 -0.000114 -0.001151 -16.621600 -2.192510 6.469440 -0.000001 -178.297000 24.645200 -176.056000 -39.081100 -0.002282 -0.040193 -0.206924 0.411095 27.085300 -40.985400 0.000008 0.000006 7.890630 16.119900 -73.470000 -11.754300 -0.000006 -0.000006 -0.000491 -0.007895 -16.894500
0.000000 0.000000 0.000000 0.000000 0.000000 -0.000000 -6.911280 90.245400 1.651770 84.594300 -4.960380 7.999640 15.735700 0.000005 -0.000001 81.204700 83.404000 -78.910900 8.984550 -0.406207 -0.000000 5.319010 -2.061580 4.678530 16.377300 -0.000001 -0.000001 2.530300 -0.675405 -0.773380 6.456720 -0.000001 -0.000000 -7.078930 0.399421 1.349520 12.994200 -0.242716 4.980390 -91.400100 5.847880 -76.510400 5.348090 -0.000007 -0.000001 -67.474500 33.633800 -10.957100 24.328600 0.000019 0.000005 12.421800 27.231300 -25.704400 22.291600 -0.000001 0.000005 7.657910 5.331590 -0.832029 12.994500 -0.242716 -4.980390 88.237500 12.610300 -81.977400 -5.348130 -0.000001 -0.000004 -61.296400 35.454500 -8.357870 -24.328900 0.000322 -0.000009 2.013490 5.844170 -19.057600 -22.291500 -0.000108 -0.000004 13.898100 5.422830 -3.694580 -2.192480 -6.469440 -0.000000 -165.256000 -11.942700 -0.378445 39.081100 -0.000007 -0.000012 -0.285844 0.442494 32.862400 40.985400 -0.000006 -0.000013 -3.693600 7.340410 -72.833500 11.754300 -0.000000 0.000003 -0.000121 -0.001215 -16.624000 -2.192510 6.469440 -0.000001 -178.283000 24.695900 -176.071000 -39.081100 -0.002282 -0.040193 -0.205395 0.407406 27.125100 -40.985400 0.000008 0.000006 7.922160 16.059000 -73.444300 -11.754300 -0.000006 -0.000006 -0.000547 -0.008742 -16.928900
0.000000 0.000000 0.000000 0.000000 0.000000 -0.000000 -6.942580 90.255500 1.550680 84.655900 -4.903090 8.080210 15.735700 0.000005 -0.000001 81.105600 83.364600 -78.783500 8.984550 -0.406207 -0.000000 5.394770 -2.095190 4.738030 16.377300 -0.000001 -0.000001 2.562240 -0.739981 -0.706788 6.456720 -0.000001 -0.000000 -6.974880 0.365779 1.385860 12.994200 -0.242716 4.980390 -91.413700 5.902780 -76.505900 5.348090 -0.000007 -0.000001 -67.433000 33.532900 -11.122000 24.328600 0.000019 0.000005 12.796600 26.904400 -26.654100 22.291600 -0.000001 0.000005 7.538570 5.337890 -1.016890 12.994500 -0.242716 -4.980390 88.235200 12.613600 -81.968800 -5.348130 -0.000001 -0.000004 -61.359300 35.630200 -8.500240 -24.328900 0.000322 -0.000009 1.957020 5.625640 -19.226700 -22.291500 -0.000108 -0.000004 13.947800 5.422630 -3.687730 -2.192480 -6.469440 -0.000000 -165.301000 -11.960900 -0.381094 39.081100 -0.000007 -0.000012 -0.275792 0.427261 32.842300 40.985400 -0.000006 -0.000013 -3.687210 7.388740 -72.736900 11.754300 -0.000000 0.000003 -0.000109 -0.001105 -16.619900 -2.192510 6.469440 -0.000001 -178.328000 24.727900 -176.085000 -39.081100 -0.002282 -0.040193 -0.208018 0.411818 27.165100 -40.985400 0.000008 0.000006 7.950000 16.022200 -73.406300 -11.754300 -0.000006 -0.000006 -0.000638 -0.010121 -16.984900
0.000000 0.000000 0.000000 0.000000 0.000000 -0.000000 -6.997520 90.252000 1.450440 84.661600 -4.833260 8.204280 15.735700 0.000005 -0.000001 81.142300 83.322000 -78.781500 8.984550 -0.406207 -0.000000 5.481260 -2.098800 4.817230 16.377300 -0.000001 -0.000001 2.606730 -0.842181 -0.623969 6.456720 -0.000001 -0.000000 -6.856870 0.280900 1.444220 12.994200 -0.242716 4.980390 -91.422600 5.927440 -76.478800 5.348090 -0.000007 -0.000001 -67.322500 33.253800 -11.297700 24.328600 0.000019 0.000005 13.155400 26.071400 -28.005000 22.291600 -0.000001 0.000005 7.779880 5.344790 -1.221020 12.994500 -0.242716 -4.980390 88.217300 12.619700 -81.892500 -5.348130 -0.000001 -0.000004 -61.492400 35.721300 -8.533720 -24.328900 0.000322 -0.000009 1.957700 5.558600 -19.446800 -22.291500 -0.000108 -0.000004 13.866400 5.423300 -3.710390 -2.192480 -6.469440 -0.000000 -165.247000 -11.886100 -0.369979 39.081100 -0.000007 -0.000012 -0.278000 0.430050 32.880600 40.985400 -0.000006 -0.000013 -3.710560 7.458200 -72.671400 11.754300 -0.000000 0.000003 -0.000128 -0.001273 -16.626100 -2.192510 6.469440 -0.000001 -178.298000 24.741600 -176.055000 -39.081100 -0.002282 -0.040193 -0.204674 0.404289 27.223200 -40.985400 0.000008 0.000006 7.999260 15.946500 -73.390800 -11.754300 -0.000006 -0.000006 -0.000428 -0.006914 -16.854700
0.000000 0.000000 0.000000 0.000000 0.000000 -0.000000 -7.053170 90.249300 1.350770 84.682300 -4.740650 8.296220 15.735700 0.000005 -0.000001 81.023300 83.275600 -78.629400 8.984550 -0.406207 -0.000000 5.570350 -2.139260 4.887000 16.377300 -0.000001 -0.000001 2.618580 -0.944086 -0.566064 6.456720 -0.000001 -0.000000 -6.750170 0.185514 1.558410 12.994200 -0.242716 4.980390 -91.453900 6.005820 -76.364900 5.348090 -0.000007 -0.000001 -66.837900 32.855400 -11.667800 24.328600 0.000019 0.000005 13.746700 25.050800 -30.017900 22.291600 -0.000001 0.000005 7.897570 5.358470 -1.633480 12.994500 -0.242716 -4.980390 88.212900 12.620900 -81.873400 -5.348130 -0.000001 -0.000004 -61.619000 35.801900 -8.575120 -24.328900 0.000322 -0.000009 1.958080 5.492470 -19.666000 -22.291500 -0.000108 -0.000004 13.831500 5.425260 -3.777140 -2.192480 -6.469440 -0.000000 -165.224000 -11.830200 -0.396674 39.081100 -0.000007 -0.000012 -0.274910 0.424668 32.917600 40.985400 -0.000006 -0.000013 -3.724020 7.534980 -72.602300 11.754300 -0.000000 0.000003 -0.000118 -0.001184 -16.622800 -2.192510 6.469440 -0.000001 -178.266000 24.746400 -176.085000 -39.081100 -0.002282 -0.040193 -0.204735 0.403072 27.300400 -40.985400 0.000008 0.000006 8.041000 15.850200 -73.370900 -11.754300 -0.000006 -0.000006 -0.000396 -0.006423 -16.834700
0.000000 0.000000 0.000000 0.000000 0.000000 -0.000000 -7.107170 90.252600 1.241050 84.714900 -4.633340 8.394050 15.735700 0.000005 -0.000001 81.190900 83.227800 -78.764100 8.984550 -0.406207 -0.000000 5.670980 -2.113430 4.953220 16.377300 -0.000001 -0.000001 2.630060 -1.106080 -0.435570 6.456720 -0.000001 -0.000000 -6.639200 -0.010420 1.564470 12.994200 -0.242716 4.980390 -91.507200 6.186290 -76.279400 5.348090 -0.000007 -0.000001 -65.799500 32.372600 -12.455000 24.328600 0.000019 0.000005 14.636100 24.085200 -32.617000 22.291600 -0.000001 0.000005 7.947860 5.367280 -1.902640 12.994500 -0.242716 -4.980390 88.198200 12.606600 -81.798300 -5.348130 -0.000001 -0.000004 -61.708600 35.924700 -8.623940 -24.328900 0.000322 -0.000009 1.912350 5.311820 -19.842900 -22.291500 -0.000108 -0.000004 13.822300 5.427790 -3.863430 -2.192480 -6.469440 -0.000000 -165.222000 -11.766100 -0.419175 39.081100 -0.000007 -0.000012 -0.275177 0.424892 32.929200 40.985400 -0.000006 -0.000013 -3.742380 7.579370 -72.510200 11.754300 -0.000000 0.000003 -0.000101 -0.001040 -16.617500 -2.192510 6.469440 -0.000001 -178.261000 24.808800 -176.080000 -39.081100 -0.002282 -0.040193 -0.202090 0.397282 27.339600 -40.985400 0.000008 0.000006 8.078430 15.763200 -73.339800 -11.754300 -0.000006 -0.000006 -0.000505 -0.008100 -16.902800
0.000000 0.000000 0.000000 0.000000 0.000000 -0.000000 -7.177570 90.250300 1.134520 84.737200 -4.423510 8.508350 15.735700 0.000005 -0.000001 81.324500 83.188900 -78.859200 8.984550 -0.406207 -0.000000 5.753250 -2.092840 5.030630 16.377300 -0.000001 -0.000001 2.698100 -1.338880 -0.241888 6.456720 -0.000001 -0.000000 -6.490000 -0.257535 1.556760 12.994200 -0.242716 4.980390 -91.563600 6.370590 -76.179000 5.348090 -0.000007 -0.000001 -64.172300 32.022000 -13.858900 24.328600 0.000019 0.000005 15.371000 22.833600 -35.314400 22.291600 -0.000001 0.000005 8.101310 5.375110 -2.144950 12.994500 -0.242716 -4.980390 88.194600 12.573000 -81.761000 -5.348130 -0.000001 -0.000004 -61.828500 35.937800 -8.564140 -24.328900 0.000322 -0.000009 1.932390 5.323230 -19.994900 -22.291500 -0.000108 -0.000004 13.810800 5.425860 -3.797870 -2.192480 -6.469440 -0.000000 -165.202000 -11.600200 -0.477938 39.081100 -0.000007 -0.000012 -0.274679 0.423517 32.966600 40.985400 -0.000006 -0.000013 -3.764550 7.681680 -72.414200 11.754300 -0.000000 0.000003 -0.000104 -0.001060 -16.618200 -2.192510 6.469440 -0.000001 -178.249000 24.933500 -176.064000 -39.081100 -0.002282 -0.040193 -0.201755 0.395753 27.391500 -40.985400 0.000008 0.000006 8.113730 15.630300 -73.319400 -11.754300 -0.000006 -0.000006 -0.000460 -0.007413 -16.874900
0.000000 0.000000 0.000000 0.000000 0.000000 -0.000000 -7.230940 90.252200 1.011150 84.753600 -4.103560 8.603470 15.735700 0.000005 -0.000001 81.202100 83.165400 -78.705100 8.984550 -0.406207 -0.000000 5.796780 -2.128240 5.096560 16.377300 -0.000001 -0.000001 2.778580 -1.596880 -0.078834 6.456720 -0.000001 -0.000000 -6.241100 -0.592011 1.782070 12.994200 -0.242716 4.980390 -91.595900 6.475280 -76.122800 5.348090 -0.000007 -0.000001 -62.269000 31.299600 -15.618000 24.328600 0.000019 0.000005 16.588900 22.050500 -38.432100 22.291600 -0.000001 0.000005 8.225310 5.380560 -2.316150 12.994500 -0.242716 -4.980390 88.186500 12.598400 -81.740500 -5.348130 -0.000001 -0.000004 -61.820500 36.024600 -8.511150 -24.328900 0.000322 -0.000009 1.940500 5.338150 -20.020700 -22.291500 -0.000108 -0.000004 13.824600 5.425580 -3.788020 -2.192480 -6.469440 -0.000000 -165.223000 -11.347000 -0.599789 39.081100 -0.000007 -0.000012 -0.277563 0.427236 33.011100 40.985400 -0.000006 -0.000013 -3.781800 7.730420 -72.310400 11.754300 -0.000000 0.000003 -0.000117 -0.001176 -16.622500 -2.192510 6.469440 -0.000001 -178.252000 25.172500 -176.066000 -39.081100 -0.002282 -0.040193 -0.201173 0.394062 27.425200 -40.985400 0.000008 0.000006 8.153900 15.551500 -73.286600 -11.754300 -0.000006 -0.000006 -0.000549 -0.008781 -16.930500
